# xmcd
#
# Track frame offsets: 
#        150
#        14517
#        40359
#        66864
#        117173
#        147205
#        175672
#        205963
#
# Disc length: 3307 seconds
#
# Revision: 1
# Processed by: cddbd v1.5.2PL0 Copyright (c) Steve Scherf et al.
# Submitted via: ExactAudioCopy v1.0b3
#
DISCID=6f0ce908
DTITLE=Led Zeppelin - Celebration day
DYEAR=2012
DGENRE=Hard Rock
TTITLE0=Good times, bad times
TTITLE1=Ramble on
TTITLE2=Black dog
TTITLE3=In my time of dying
TTITLE4=For your life
TTITLE5=Trampled under foot
TTITLE6=Nobody's fault but mine
TTITLE7=No quarter
EXTD=YEAR: 2007
EXTT0=
EXTT1=
EXTT2=
EXTT3=
EXTT4=
EXTT5=
EXTT6=
EXTT7=
PLAYORDER=
